# xmcd
#
# Track frame offsets:
# 150
# 14653
# 41012
# 53765
# 79290
# 98065
# 104918
# 132635
# 153586
# 171804
# 197439
# 223548
# 238540
#
# Disc length: 3425 seconds
#
#
# Revision: 0
# Processed by: cddbd v1.5.1PL0 Copyright (c) Steve Scherf et al.
# Submitted via: FreeRIP 2.942 
#
DISCID=b70d5f0d
DTITLE=Eerie Von - Bad Dream No. 13
DYEAR=2005
DGENRE=Horror Punk
TTITLE0=A Cage is a Cage
TTITLE1=The Bone Drone
TTITLE2=In the Shade
TTITLE3=Downontheslab
TTITLE4=2 Tears in a Bucket
TTITLE5=Prelude to Death
TTITLE6=Meet Death
TTITLE7=Bad Dream
TTITLE8=The Perfect Criminal
TTITLE9=The Velvet Shroud
TTITLE10=Sing Sinner Sing
TTITLE11=Case Study #107 - Rec. Room 3A
TTITLE12=Benediction #2
EXTD=
EXTT0=
EXTT1=
EXTT2=
EXTT3=
EXTT4=
EXTT5=
EXTT6=
EXTT7=
EXTT8=
EXTT9=
EXTT10=
EXTT11=
EXTT12=
PLAYORDER=
